<svg width="20" height="20" viewBox="0 0 20 20" fill="none" xmlns="http://www.w3.org/2000/svg">
<mask id="mask0" mask-type="alpha" maskUnits="userSpaceOnUse" x="0" y="0" width="20" height="20">
<path d="M0 10C0 4.47715 4.47715 0 10 0C15.5228 0 20 4.47715 20 10C20 15.5228 15.5228 20 10 20C4.47715 20 0 15.5228 0 10Z" fill="#DBDBDB"/>
</mask>
<g mask="url(#mask0)">
</g>
<path d="M5.70424 17L3.71712 16.8343C3.56154 16.8343 3.43543 16.7081 3.43543 16.5526L3.38095 6.56355L4.48847 6.41174L6.24754 6.57715V16.2361L5.70424 17Z" fill="#5F6C75"/>
<path d="M6.10505 16.4367L5.70421 17H3.56337C3.40779 17 3.28168 16.8739 3.28168 16.7183V6.57724L3.51452 6.44983L3.70421 6.57724V16.2676C3.70421 16.361 3.77987 16.4367 3.87323 16.4367H6.10505Z" fill="#4E5A61"/>
<path d="M14.2958 17L16.374 16.9193C16.5295 16.9193 16.6557 16.7932 16.6557 16.6377L16.7183 16.4366V6.57717L15.2808 6.41895L13.6325 6.57717V16.5382L14.2958 17Z" fill="#5F6C75"/>
<path d="M14.8591 16.2676V6.57722L14.4084 6.44775L13.6324 6.57722V15.9749V16.5383L14.2958 17H14.8591H16.4366C16.5922 17 16.7183 16.8739 16.7183 16.7183V16.4366H15.0282C14.9348 16.4366 14.8591 16.361 14.8591 16.2676Z" fill="#4E5A61"/>
<path d="M14.2958 12.5771H15.507C15.5848 12.5771 15.6479 12.5141 15.6479 12.4363V11.056C15.6479 10.9782 15.5848 10.9152 15.507 10.9152H14.2958V12.5771Z" fill="#BED9FD"/>
<path d="M14.2958 15.5067H15.507C15.5848 15.5067 15.6479 15.4436 15.6479 15.3658V13.9856C15.6479 13.9078 15.5848 13.8447 15.507 13.8447H14.2958V15.5067Z" fill="#BED9FD"/>
<path d="M14.2958 9.64756H15.507C15.5848 9.64756 15.6479 9.58449 15.6479 9.50672V8.12644C15.6479 8.04867 15.5848 7.9856 15.507 7.9856H14.2958V9.64756Z" fill="#BED9FD"/>
<path d="M14.1804 10.9152H14.8591V12.5771H14.1804V10.9152Z" fill="#9EC8FC"/>
<path d="M14.1804 13.8447H14.8591V15.5067H14.1804V13.8447Z" fill="#9EC8FC"/>
<path d="M14.1804 7.9856H14.8591V9.64756H14.1804V7.9856Z" fill="#9EC8FC"/>
<path d="M14.2135 6.4802L16.8055 6.48932C16.8833 6.48932 16.9463 6.42625 16.9463 6.34848L17 6.15462V5.8729C17 5.79513 16.9369 5.73206 16.8591 5.73206H14.8591L14.1804 5.8651L14.2135 6.4802Z" fill="#5F6C75"/>
<path d="M17 6.15459V6.43628C17 6.51406 16.9369 6.57713 16.8591 6.57713H14.2958L14.196 6.15459L14.2958 5.73206H14.8591V6.01375C14.8591 6.09152 14.9222 6.15459 15 6.15459H17Z" fill="#4E5A61"/>
<path d="M5.98594 9.64756H4.49299C4.41521 9.64756 4.35214 9.58449 4.35214 9.50672V8.12644C4.35214 8.04867 4.41521 7.9856 4.49299 7.9856H5.98594V9.64756Z" fill="#BED9FD"/>
<path d="M5.98594 12.5771H4.49299C4.41521 12.5771 4.35214 12.5141 4.35214 12.4363V11.056C4.35214 10.9782 4.41521 10.9152 4.49299 10.9152H5.98594V12.5771Z" fill="#BED9FD"/>
<path d="M5.98594 15.5067H4.49299C4.41521 15.5067 4.35214 15.4436 4.35214 15.3658V13.9856C4.35214 13.9078 4.41521 13.8447 4.49299 13.8447H5.98594V15.5067Z" fill="#BED9FD"/>
<path d="M5.70424 6.57713L3.26281 6.45121C3.18504 6.45121 3.12197 6.38814 3.12197 6.31037L3.06143 5.90203C3.06143 5.82425 3.1245 5.76118 3.20228 5.76118L3.42253 5.73206H5.70424L5.91551 6.22687L5.70424 6.57713Z" fill="#5F6C75"/>
<path d="M5.70422 6.15459L5.80881 6.34696L5.70422 6.57713H3.14084C3.0631 6.57713 3 6.51403 3 6.43628V5.8729C3 5.79515 3.0631 5.73206 3.14084 5.73206H3.42253V6.01375C3.42253 6.09149 3.48563 6.15459 3.56338 6.15459H5.70422Z" fill="#4E5A61"/>
<path d="M14.2958 3.98591V16.4366L14.166 16.7971L5.87326 16.869V3.98591L9.78858 3.76746L14.2958 3.98591Z" fill="#5F6C75"/>
<path d="M14.4084 16.4366V16.9999H13.4214L12.8157 16.8088L12.2101 16.9999H11.3188L9.71169 16.7419L8.68082 16.9999H7.81688L7.15612 16.8474L6.60561 16.9999H5.42252L5.70421 16.4357V3.98588L5.91547 3.71948L6.09857 3.98588V16.2675C6.09857 16.3609 6.17423 16.4366 6.26758 16.4366H14.4084Z" fill="#4E5A61"/>
<path d="M7.60562 5.09857V6.42392C7.60562 6.45491 7.58027 6.48026 7.54929 6.48026H6.87323C6.84225 6.48026 6.81689 6.45491 6.81689 6.42392V5.09857C6.81689 5.06759 6.84225 5.04224 6.87323 5.04224H7.54929C7.58027 5.04224 7.60562 5.06759 7.60562 5.09857Z" fill="#BED9FD"/>
<path d="M7.60562 6.95917V8.28452C7.60562 8.31551 7.58027 8.34086 7.54929 8.34086H6.87323C6.84225 8.34086 6.81689 8.31551 6.81689 8.28452V6.95917C6.81689 6.9279 6.84225 6.90283 6.87323 6.90283H7.54929C7.58027 6.90283 7.60562 6.9279 7.60562 6.95917Z" fill="#BED9FD"/>
<path d="M7.60562 8.81964V10.145C7.60562 10.176 7.58027 10.2013 7.54929 10.2013H6.87323C6.84225 10.2013 6.81689 10.176 6.81689 10.145V8.81964C6.81689 8.78838 6.84225 8.76331 6.87323 8.76331H7.54929C7.58027 8.76331 7.60562 8.78838 7.60562 8.81964Z" fill="#BED9FD"/>
<path d="M7.60562 10.6802V12.0053C7.60562 12.0366 7.58027 12.0616 7.54929 12.0616H6.87323C6.84225 12.0616 6.81689 12.0366 6.81689 12.0053V10.6802C6.81689 10.649 6.84225 10.6239 6.87323 10.6239H7.54929C7.58027 10.6239 7.60562 10.649 7.60562 10.6802Z" fill="#BED9FD"/>
<path d="M7.60562 12.5406V13.8761C7.60562 13.9071 7.58027 13.9324 7.54929 13.9324H6.87323C6.84225 13.9324 6.81689 13.9071 6.81689 13.8761V12.5406C6.81689 12.5096 6.84225 12.4843 6.87323 12.4843H7.54929C7.58027 12.4843 7.60562 12.5096 7.60562 12.5406Z" fill="#BED9FD"/>
<path d="M9.78843 5.09857V6.42392C9.78843 6.45491 9.76336 6.48026 9.73209 6.48026H8.94843C8.91744 6.48026 8.89209 6.45491 8.89209 6.42392V5.09857C8.89209 5.06759 8.91744 5.04224 8.94843 5.04224H9.73209C9.76336 5.04224 9.78843 5.06759 9.78843 5.09857Z" fill="#BED9FD"/>
<path d="M9.78843 6.95917V8.28452C9.78843 8.31551 9.76336 8.34086 9.73209 8.34086H8.94843C8.91744 8.34086 8.89209 8.31551 8.89209 8.28452V6.95917C8.89209 6.9279 8.91744 6.90283 8.94843 6.90283H9.73209C9.76336 6.90283 9.78843 6.9279 9.78843 6.95917Z" fill="#BED9FD"/>
<path d="M9.78843 8.81964V10.145C9.78843 10.176 9.76336 10.2013 9.73209 10.2013H8.94843C8.91744 10.2013 8.89209 10.176 8.89209 10.145V8.81964C8.89209 8.78838 8.91744 8.76331 8.94843 8.76331H9.73209C9.76336 8.76331 9.78843 8.78838 9.78843 8.81964Z" fill="#BED9FD"/>
<path d="M9.78843 10.6802V12.0053C9.78843 12.0366 9.76336 12.0616 9.73209 12.0616H8.94843C8.91744 12.0616 8.89209 12.0366 8.89209 12.0053V10.6802C8.89209 10.649 8.91744 10.6239 8.94843 10.6239H9.73209C9.76336 10.6239 9.78843 10.649 9.78843 10.6802Z" fill="#BED9FD"/>
<path d="M9.78843 12.5406V13.8761C9.78843 13.9071 9.76336 13.9324 9.73209 13.9324H8.94843C8.91744 13.9324 8.89209 13.9071 8.89209 13.8761V12.5406C8.89209 12.5096 8.91744 12.4843 8.94843 12.4843H9.73209C9.76336 12.4843 9.78843 12.5096 9.78843 12.5406Z" fill="#BED9FD"/>
<path d="M11.1073 5.09857V6.42392C11.1073 6.45491 11.0822 6.48026 11.051 6.48026H10.2673C10.2363 6.48026 10.211 6.45491 10.211 6.42392V5.09857C10.211 5.06759 10.2363 5.04224 10.2673 5.04224H11.051C11.0822 5.04224 11.1073 5.06759 11.1073 5.09857Z" fill="#BED9FD"/>
<path d="M11.1073 6.95917V8.28452C11.1073 8.31551 11.0822 8.34086 11.051 8.34086H10.2673C10.2363 8.34086 10.211 8.31551 10.211 8.28452V6.95917C10.211 6.9279 10.2363 6.90283 10.2673 6.90283H11.051C11.0822 6.90283 11.1073 6.9279 11.1073 6.95917Z" fill="#BED9FD"/>
<path d="M11.1073 8.81964V10.145C11.1073 10.176 11.0822 10.2013 11.051 10.2013H10.2673C10.2363 10.2013 10.211 10.176 10.211 10.145V8.81964C10.211 8.78838 10.2363 8.76331 10.2673 8.76331H11.051C11.0822 8.76331 11.1073 8.78838 11.1073 8.81964Z" fill="#BED9FD"/>
<path d="M11.1073 10.6802V12.0053C11.1073 12.0366 11.0822 12.0616 11.051 12.0616H10.2673C10.2363 12.0616 10.211 12.0366 10.211 12.0053V10.6802C10.211 10.649 10.2363 10.6239 10.2673 10.6239H11.051C11.0822 10.6239 11.1073 10.649 11.1073 10.6802Z" fill="#BED9FD"/>
<path d="M11.1073 12.5406V13.8761C11.1073 13.9071 11.0822 13.9324 11.051 13.9324H10.2673C10.2363 13.9324 10.211 13.9071 10.211 13.8761V12.5406C10.211 12.5096 10.2363 12.4843 10.2673 12.4843H11.051C11.0822 12.4843 11.1073 12.5096 11.1073 12.5406Z" fill="#BED9FD"/>
<path d="M13.2098 5.09857V6.42392C13.2098 6.45491 13.1848 6.48026 13.1535 6.48026H12.4775C12.4465 6.48026 12.4211 6.45491 12.4211 6.42392V5.09857C12.4211 5.06759 12.4465 5.04224 12.4775 5.04224H13.1535C13.1848 5.04224 13.2098 5.06759 13.2098 5.09857Z" fill="#BED9FD"/>
<path d="M13.2098 6.95917V8.28452C13.2098 8.31551 13.1848 8.34086 13.1535 8.34086H12.4775C12.4465 8.34086 12.4211 8.31551 12.4211 8.28452V6.95917C12.4211 6.9279 12.4465 6.90283 12.4775 6.90283H13.1535C13.1848 6.90283 13.2098 6.9279 13.2098 6.95917Z" fill="#BED9FD"/>
<path d="M13.2098 8.81964V10.145C13.2098 10.176 13.1848 10.2013 13.1535 10.2013H12.4775C12.4465 10.2013 12.4211 10.176 12.4211 10.145V8.81964C12.4211 8.78838 12.4465 8.76331 12.4775 8.76331H13.1535C13.1848 8.76331 13.2098 8.78838 13.2098 8.81964Z" fill="#BED9FD"/>
<path d="M13.2098 10.6802V12.0053C13.2098 12.0366 13.1848 12.0616 13.1535 12.0616H12.4775C12.4465 12.0616 12.4211 12.0366 12.4211 12.0053V10.6802C12.4211 10.649 12.4465 10.6239 12.4775 10.6239H13.1535C13.1848 10.6239 13.2098 10.649 13.2098 10.6802Z" fill="#BED9FD"/>
<path d="M13.2098 12.5406V13.8761C13.2098 13.9071 13.1848 13.9324 13.1535 13.9324H12.4775C12.4465 13.9324 12.4211 13.9071 12.4211 13.8761V12.5406C12.4211 12.5096 12.4465 12.4843 12.4775 12.4843H13.1535C13.1848 12.4843 13.2098 12.5096 13.2098 12.5406Z" fill="#BED9FD"/>
<path d="M14.2957 3.86574L5.62601 3.92749C5.54824 3.92749 5.48517 3.86442 5.48517 3.78665L5.56339 3.20408C5.56339 3.12631 5.62646 3.06324 5.70424 3.06324L5.9859 3H14.4366C14.5144 3 14.5775 3.06307 14.5775 3.14084V3.42253L14.4366 3.7249C14.4366 3.8027 14.3735 3.86574 14.2957 3.86574Z" fill="#5F6C75"/>
<path d="M14.5774 3.42253V3.84507C14.5774 3.92282 14.5143 3.98591 14.4366 3.98591H5.56336C5.48561 3.98591 5.42252 3.92282 5.42252 3.84507V3.14084C5.42252 3.0631 5.48561 3 5.56336 3H5.9859V3.28169C5.9859 3.35944 6.04899 3.42253 6.12674 3.42253H14.5774Z" fill="#4E5A61"/>
<path d="M7.81688 15.1324V16.4366L7.79381 16.9098L6.66226 16.9194L6.67606 15.2173C6.67606 15.1395 6.73916 15.0764 6.81691 15.0764L7.16899 14.9916H7.67603C7.75378 14.9916 7.81688 15.0547 7.81688 15.1324Z" fill="#BED9FD"/>
<path d="M13.4214 15.1324V16.4366L13.3797 16.9194H12.3008L12.2804 15.1807C12.2804 15.103 12.3432 15.0399 12.4212 15.0399L12.7735 14.9916H13.2805C13.3583 14.9916 13.4214 15.0547 13.4214 15.1324Z" fill="#BED9FD"/>
<path d="M11.3189 15.1324V16.4366L11.2508 16.9194L8.76718 16.8691L8.7514 15.2047C8.7514 15.127 8.8145 15.0639 8.89225 15.0639L9.24422 14.9916H11.178C11.2558 14.9916 11.3189 15.0547 11.3189 15.1324Z" fill="#BED9FD"/>
<path d="M7.81689 16.4366V17H6.60562V15.1324C6.60562 15.0546 6.66869 14.9916 6.74647 14.9916H7.169V16.2958C7.169 16.3736 7.23207 16.4366 7.30985 16.4366H7.81689Z" fill="#9EC8FC"/>
<path d="M13.4214 16.4366V17H12.2101V15.1324C12.2101 15.0547 12.2729 14.9916 12.351 14.9916H12.7735V16.2958C12.7735 16.3736 12.8366 16.4366 12.9143 16.4366H13.4214Z" fill="#9EC8FC"/>
<path d="M11.3189 16.4366V17H8.68085V15.1324C8.68085 15.0546 8.74392 14.9916 8.82169 14.9916H9.24423V16.2958C9.24423 16.3736 9.3073 16.4366 9.38507 16.4366H11.3189Z" fill="#9EC8FC"/>
</svg>
