<svg width="54" height="56" viewBox="0 0 54 56" fill="none" xmlns="http://www.w3.org/2000/svg">
<path d="M27 10.3156C15.75 10.3156 6.1425 17.4447 2.25 27.508C6.1425 37.5714 15.75 44.7005 27 44.7005C38.25 44.7005 47.8575 37.5714 51.75 27.508C47.8575 17.4447 38.25 10.3156 27 10.3156ZM27 38.9697C20.79 38.9697 15.75 33.8349 15.75 27.508C15.75 21.1812 20.79 16.0464 27 16.0464C33.21 16.0464 38.25 21.1812 38.25 27.508C38.25 33.8349 33.21 38.9697 27 38.9697ZM27 20.6311C23.265 20.6311 20.25 23.7028 20.25 27.508C20.25 31.3133 23.265 34.385 27 34.385C30.735 34.385 33.75 31.3133 33.75 27.508C33.75 23.7028 30.735 20.6311 27 20.6311Z" fill="white"/>
</svg>
