<svg xmlns="http://www.w3.org/2000/svg" xmlns:xlink="http://www.w3.org/1999/xlink" version="1.1" width="100" height="100" viewBox="0 0 100 100" xml:space="preserve">
<desc>Created with Fabric.js 3.5.0</desc>
<defs>
</defs>
<rect x="0" y="0" width="100%" height="100%" fill="rgba(255,255,255,0)"/>
<g transform="matrix(0.182 0 0 0.1905 49.9916 50.0022)" id="985641">
<path style="stroke: none; stroke-width: 0.32; stroke-dasharray: none; stroke-linecap: butt; stroke-dashoffset: 0; stroke-linejoin: miter; stroke-miterlimit: 4; is-custom-font: none; font-file-url: none; fill: rgb(255,255,255); fill-rule: nonzero; opacity: 1;" vector-effect="non-scaling-stroke" transform=" translate(-312.4859, -300.3113)" d="M 299.04001 562.55281 C 271.55393 561.13959 245.99665 556.3186 220.91702 547.81601 C 168.11246 529.91406 122.1187 496.80775 89.135929 452.96001 C 62.981384 418.1898 46.171029 377.63098 40.195467 334.88001 C 34.859316 296.70356 38.494785 257.40894 50.786955 220.4 l 1.780275 -5.36 h 74.96164 h 74.96165 l 0.51493 1.28695 c 0.28322 0.70782 18.09874 46.96783 39.59006 102.80001 c 21.49132 55.83218 39.1786 101.62521 39.30508 101.7623 c 0.12647 0.13712 0.17672 -5.40689 0.11167 -12.32001 c -0.1262 -13.41184 -1.37516 -187.3047 -1.37334 -191.20925 l 0.001 -2.32 h 27.29232 h 27.29232 l 17.52685 45.52 c 9.63978 25.036 27.49024 71.40106 39.66768 103.03351 l 22.14083 57.51347 l 0.0805 -103.03349 l 0.0805 -103.03349 h 31.51948 h 31.51953 v 14.08 v 14.08 h -29.28001 h -29.28 v 92.0018 v 92.00179 l -27.41376 -0.0818 l -27.41376 -0.0818 l -13.98352 -36.32 c -7.69091 -19.976 -25.31955 -65.768 -39.17471 -101.76001 c -13.85517 -35.992 -25.46153 -66.016 -25.79191 -66.72 c -0.59384 -1.26543 -0.59885 -1.08332 -0.44007 16 c 0.0883 9.504 0.3662 48.528 0.61748 86.72001 c 0.25127 38.192 0.54527 76.82 0.65332 85.84 l 0.19647 16.4 H 259.08768 H 231.7259 l -0.63329 -1.68 c -0.34832 -0.924 -3.65691 -9.528 -7.35244 -19.12 c -3.69553 -9.592 -20.83171 -54.088 -38.08039 -98.88 c -17.24869 -44.79201 -31.96132 -82.98858 -32.69475 -84.88127 l -1.3335 -3.44127 l -39.0525 0.0813 l -39.052494 0.0813 l -1.420108 4 c -5.031277 14.17154 -9.180775 31.74138 -11.14731 47.2 c -2.212045 17.38854 -2.437293 37.14777 -0.61832 54.24001 c 4.279687 40.21468 18.962017 78.5551 42.889092 111.99763 c 12.20628 17.06054 27.89608 33.76595 44.61002 47.49766 c 34.89185 28.66621 78.45456 48.07735 123.52001 55.03936 c 15.38964 2.37751 22.86021 2.90535 41.12 2.90535 c 15.96835 0 19.10064 -0.15037 30.4 -1.45942 c 53.95501 -6.25073 103.68538 -28.59345 143.52001 -64.48023 c 4.98486 -4.49082 15.20521 -14.77923 19.53033 -19.66035 c 32.08512 -36.2097 52.22375 -80.37856 58.2152 -127.68 c 2.0625 -16.28287 2.24269 -36.49624 0.47357 -53.12001 c -5.16758 -48.5579 -25.63843 -94.54398 -58.68906 -131.84 c -4.32995 -4.88616 -14.54992 -15.17445 -19.53004 -19.66065 c -39.08039 -35.204341 -87.925 -57.485422 -140.64001 -64.154709 c -10.46925 -1.324528 -16.1992 -1.688624 -29.21792 -1.85657 c -12.99477 -0.167641 -20.01053 0.07905 -29.98208 1.054253 c -43.04614 4.209834 -84.578 19.130122 -120.22761 43.191676 l -5.34761 3.60934 l -0.62268 -1.65167 c -0.34247 -0.90842 -2.00405 -5.233748 -3.69239 -9.611844 c -1.68835 -4.378096 -3.06672 -8.122097 -3.06306 -8.320001 c 0.0109 -0.586678 9.30652 -6.536444 18.07335 -11.568 c 69.47173 -39.871984 154.58506 -48.178105 231.2 -22.56257 c 40.60512 13.575965 76.24455 35.346996 106.35517 64.969075 c 30.22948 29.73904 51.75556 63.93073 64.87201 103.04167 c 19.99229 59.61362 16.94752 124.15089 -8.58276 181.92001 c -18.13328 41.03145 -47.44467 77.43542 -84.72441 105.22547 c -40.18884 29.95862 -89.46682 48.91776 -139.84001 53.80179 c -12.40733 1.20301 -30.80558 1.69696 -41.92 1.12554 z" stroke-linecap="round"/>
</g>
</svg>