<svg width="26" height="26" viewBox="0 0 26 26" fill="none" xmlns="http://www.w3.org/2000/svg">
<path d="M10.9634 9.64316C11.1646 9.50901 11.4132 9.38909 11.7 9.29629L11.7 11.5037C11.4132 11.4109 11.1646 11.2909 10.9634 11.1568C10.4901 10.8412 10.4 10.548 10.4 10.4C10.4 10.2519 10.4901 9.95872 10.9634 9.64316Z" fill="#111827" fill-opacity="0.1"/>
<path d="M14.3 16.7037L14.3 14.4963C14.5868 14.5891 14.8354 14.709 15.0366 14.8432C15.51 15.1587 15.6 15.4519 15.6 15.6C15.6 15.748 15.51 16.0412 15.0366 16.3568C14.8354 16.4909 14.5868 16.6109 14.3 16.7037Z" fill="#111827" fill-opacity="0.1"/>
<path fill-rule="evenodd" clip-rule="evenodd" d="M13 23.4C18.7438 23.4 23.4 18.7437 23.4 13C23.4 7.25621 18.7438 2.59998 13 2.59998C7.25624 2.59998 2.60001 7.25621 2.60001 13C2.60001 18.7437 7.25624 23.4 13 23.4ZM14.3 6.49998C14.3 5.78201 13.718 5.19998 13 5.19998C12.282 5.19998 11.7 5.78201 11.7 6.49998V6.61957C10.8919 6.77132 10.1445 7.06427 9.52118 7.47983C8.583 8.10529 7.80001 9.11211 7.80001 10.4C7.80001 11.6878 8.583 12.6947 9.52118 13.3201C10.1445 13.7357 10.8919 14.0286 11.7 14.1804L11.7 16.704C11.1917 16.5389 10.8149 16.2914 10.6037 16.048C10.1331 15.5057 9.31208 15.4475 8.76979 15.9181C8.22751 16.3886 8.16935 17.2097 8.63989 17.752C9.37113 18.5947 10.4774 19.1501 11.7 19.3799L11.7 19.4999C11.7 20.2179 12.282 20.8 13 20.8C13.7179 20.8 14.3 20.218 14.3 19.5L14.3 19.3804C15.1081 19.2286 15.8555 18.9357 16.4789 18.5201C17.417 17.8947 18.2 16.8878 18.2 15.6C18.2 14.3121 17.417 13.3053 16.4788 12.6798C15.8555 12.2643 15.1081 11.9713 14.3 11.8196L14.3 9.29595C14.8083 9.46099 15.1851 9.7085 15.3964 9.95197C15.8669 10.4942 16.688 10.5524 17.2302 10.0819C17.7725 9.61133 17.8307 8.79027 17.3601 8.24798C16.6289 7.40525 15.5226 6.84987 14.3 6.62004V6.49998Z" fill="#111827" fill-opacity="0.1"/>
</svg>
