<svg width="22" height="22" viewBox="0 0 22 22" fill="none" xmlns="http://www.w3.org/2000/svg">
<path d="M8.9634 7.64316C9.16463 7.50901 9.41322 7.38909 9.70001 7.29629L9.70002 9.50367C9.41322 9.41086 9.16464 9.29095 8.9634 9.15679C8.49006 8.84123 8.40001 8.54805 8.40001 8.39998C8.40001 8.2519 8.49006 7.95872 8.9634 7.64316Z" fill="#59CB15"/>
<path d="M12.3 14.7037L12.3 12.4963C12.5868 12.5891 12.8354 12.709 13.0366 12.8432C13.51 13.1587 13.6 13.4519 13.6 13.6C13.6 13.748 13.51 14.0412 13.0366 14.3568C12.8354 14.4909 12.5868 14.6109 12.3 14.7037Z" fill="#59CB15"/>
<path fill-rule="evenodd" clip-rule="evenodd" d="M11 21.4C16.7438 21.4 21.4 16.7437 21.4 11C21.4 5.25621 16.7438 0.599976 11 0.599976C5.25624 0.599976 0.600006 5.25621 0.600006 11C0.600006 16.7437 5.25624 21.4 11 21.4ZM12.3 4.49998C12.3 3.78201 11.718 3.19998 11 3.19998C10.282 3.19998 9.70001 3.78201 9.70001 4.49998V4.61957C8.89193 4.77132 8.14453 5.06427 7.52118 5.47983C6.583 6.10529 5.80001 7.11211 5.80001 8.39998C5.80001 9.68784 6.583 10.6947 7.52118 11.3201C8.14453 11.7357 8.89194 12.0286 9.70002 12.1804L9.70003 14.704C9.19173 14.5389 8.81493 14.2914 8.60367 14.048C8.13313 13.5057 7.31208 13.4475 6.76979 13.9181C6.22751 14.3886 6.16935 15.2097 6.63989 15.752C7.37113 16.5947 8.47743 17.1501 9.70001 17.3799L9.70001 17.4999C9.69999 18.2179 10.282 18.8 11 18.8C11.7179 18.8 12.3 18.218 12.3 17.5L12.3 17.3804C13.1081 17.2286 13.8555 16.9357 14.4789 16.5201C15.417 15.8947 16.2 14.8878 16.2 13.6C16.2 12.3121 15.417 11.3053 14.4788 10.6798C13.8555 10.2643 13.1081 9.97132 12.3 9.81957L12.3 7.29595C12.8083 7.46099 13.1851 7.7085 13.3964 7.95197C13.8669 8.49425 14.688 8.55241 15.2302 8.08187C15.7725 7.61133 15.8307 6.79027 15.3601 6.24798C14.6289 5.40525 13.5226 4.84987 12.3 4.62004V4.49998Z" fill="#59CB15"/>
</svg>
