<svg width="10" height="12" viewBox="0 0 10 12" fill="none" xmlns="http://www.w3.org/2000/svg">
<path d="M4.99967 5.99984C4.35801 5.99984 3.83301 5.47484 3.83301 4.83317C3.83301 4.1915 4.35801 3.6665 4.99967 3.6665C5.64134 3.6665 6.16634 4.1915 6.16634 4.83317C6.16634 5.47484 5.64134 5.99984 4.99967 5.99984ZM8.49967 4.94984C8.49967 2.83234 6.95384 1.33317 4.99967 1.33317C3.04551 1.33317 1.49967 2.83234 1.49967 4.94984C1.49967 6.31484 2.63717 8.12317 4.99967 10.2815C7.36217 8.12317 8.49967 6.31484 8.49967 4.94984ZM4.99967 0.166504C7.44967 0.166504 9.66634 2.04484 9.66634 4.94984C9.66634 6.8865 8.10884 9.179 4.99967 11.8332C1.89051 9.179 0.333008 6.8865 0.333008 4.94984C0.333008 2.04484 2.54967 0.166504 4.99967 0.166504Z" fill="#6A6A6A"/>
</svg>
