<?xml version="1.0" encoding="iso-8859-1"?>
<!-- Generator: Adobe Illustrator 18.0.0, SVG Export Plug-In . SVG Version: 6.00 Build 0)  -->
<!DOCTYPE svg PUBLIC "-//W3C//DTD SVG 1.1//EN" "http://www.w3.org/Graphics/SVG/1.1/DTD/svg11.dtd">
<svg version="1.1" id="Capa_1" xmlns="http://www.w3.org/2000/svg" xmlns:xlink="http://www.w3.org/1999/xlink" x="0px" y="0px"
	 viewBox="0 0 297 297" style="enable-background:new 0 0 297 297;" xml:space="preserve">
<path d="M148.5,0C85.646,0,34.511,51.136,34.511,113.989c0,25.11,8.008,48.926,23.157,68.873
	c13.604,17.914,32.512,31.588,53.658,38.904l27.464,68.659c1.589,3.971,5.434,6.574,9.71,6.574c4.276,0,8.121-2.603,9.71-6.574
	l27.464-68.659c21.146-7.316,40.054-20.99,53.658-38.904c15.149-19.947,23.157-43.763,23.157-68.873
	C262.489,51.136,211.354,0,148.5,0z M148.5,72.682c22.777,0,41.308,18.53,41.308,41.308c0,22.777-18.53,41.309-41.308,41.309
	c-22.777,0-41.308-18.531-41.308-41.309C107.192,91.212,125.723,72.682,148.5,72.682z"/>
</svg>
