<svg width="6" height="10" viewBox="0 0 6 10" fill="none" xmlns="http://www.w3.org/2000/svg">
<path d="M3.05 4.38571C1.78571 4.06429 1.37857 3.71429 1.37857 3.19286C1.37857 2.59286 1.94286 2.17143 2.87857 2.17143C3.86428 2.17143 4.23571 2.64286 4.26429 3.34286H5.48571C5.45 2.38571 4.86428 1.50714 3.70714 1.22143V0H2.04286V1.20714C0.964286 1.43571 0.1 2.13571 0.1 3.21429C0.1 4.49286 1.16429 5.13571 2.71429 5.50714C4.10714 5.83571 4.38571 6.32857 4.38571 6.84286C4.38571 7.22143 4.10714 7.83571 2.88571 7.83571C1.74286 7.83571 1.29286 7.32143 1.22857 6.66429H0C0.0714286 7.87857 0.971428 8.56429 2.04286 8.78571V10H3.71429V8.80714C4.8 8.6 5.65714 7.97857 5.66429 6.82857C5.65714 5.25714 4.30714 4.71429 3.05 4.38571Z" fill="#6A6A6A"/>
</svg>
